<svg width="2194" height="1024" viewBox="0 0 2194 1024" fill="none" xmlns="http://www.w3.org/2000/svg">
<path d="M907.32 416.6H866.36L881.592 360.408H869.944L861.752 391H820.792L828.984 360.408H816.056L825.016 327H837.816L844.728 301.144H885.688L878.776 327H890.68L897.592 301.4H938.552L931.64 327H944.184L935.224 360.408H922.552L907.32 416.6ZM1012.54 416.6L1030.46 346.328H992.696L980.792 391H939.832L963.768 301.4H1004.73L1001.66 312.92H1079.99L1053.5 416.6H1012.54ZM1109.82 326.872H1134.65L1119.42 384.088H1094.58L1109.82 326.872ZM1165.62 326.872L1150.39 384.088H1125.56L1140.79 326.872H1165.62ZM1085.88 416.6L1092.79 390.744H1154.74L1166.52 347.224H1198.26L1179.58 416.6H1085.88ZM1242.65 416.856H1201.69L1232.29 301.656H1273.25L1261.98 343.896H1340.32L1331.36 377.304H1253.15L1242.65 416.856Z" fill="#9C390F"/>
<path d="M940.618 614.006L964.418 524.518H819L835.66 462.4H1057.24L1000.36 676.124H778.778L795.438 614.006H940.618ZM1067.95 524.518L1084.61 462.4H1212.65L1195.99 524.518H1067.95ZM1043.43 614.482L1188.38 614.244L1223.84 486.2H1300L1247.64 676.124L1247.4 676.6H1026.77L1043.43 614.482ZM1426.38 676.6L1441.61 616.862H1370.68L1367.35 629H1291.19L1335.7 462.4H1411.86L1406.15 483.82H1505.15L1510.87 462.638H1532.05L1526.34 483.82H1530.86L1536.57 462.638H1557.75L1545.61 508.334L1502.54 676.6H1426.38ZM1387.11 554.744H1457.55L1459.7 545.938H1389.49L1387.11 554.744ZM1561.56 524.518L1578.22 462.4H1799.8L1783.14 524.518H1561.56ZM1762.19 603.534H1694.84L1675.09 677.076H1598.93L1618.68 603.534H1540.62L1557.28 541.416H1778.85L1762.19 603.534Z" fill="#9C390F"/>
<g filter="url(#filter0_d_49_107)">
<path d="M699.882 194H471.002L307.25 579.425H474.103L402.152 875L717.25 426.37H573.967L699.882 194Z" fill="url(#paint0_linear_49_107)"/>
</g>
<path d="M533.152 461.174C542.164 514.905 577.981 524.355 584.055 533.928C587.89 539.972 585.593 584.969 583.255 618L609.98 579.644C609.025 557.381 608.983 537.773 611.422 533.928C617.496 524.355 653.314 514.905 662.326 461.174C673.779 392.887 631.777 326 598.053 326C564.33 326 521.699 392.887 533.152 461.174Z" fill="#9C390F"/>
<path d="M371.074 492.824C376.846 519.752 403.424 525.522 409.546 535.139C411.965 538.941 411.963 558.077 411.045 580H434.455C433.537 558.077 433.535 538.941 435.954 535.139C442.076 525.522 468.654 519.752 474.426 492.824C481.847 458.202 464.806 329.331 455.828 326.126C444.284 322.004 451.339 420.374 448.774 452.432C448.505 455.789 444.926 458.202 441.719 458.202C438.512 458.202 435.306 456.92 434.665 452.432C434.023 447.944 432.741 406.91 431.458 376.135C430.196 345.846 428.312 326.736 422.75 326.14C417.188 326.736 415.304 345.846 414.042 376.135C412.759 406.91 411.477 447.944 410.835 452.432C410.194 456.92 406.988 458.202 403.781 458.202C400.574 458.202 396.995 455.789 396.726 452.432C394.161 420.374 401.216 322.004 389.672 326.126C380.694 329.331 363.653 458.202 371.074 492.824Z" fill="#9C390F"/>
<defs>
<filter id="filter0_d_49_107" x="257.25" y="144" width="510" height="781" filterUnits="userSpaceOnUse" color-interpolation-filters="sRGB">
<feFlood flood-opacity="0" result="BackgroundImageFix"/>
<feColorMatrix in="SourceAlpha" type="matrix" values="0 0 0 0 0 0 0 0 0 0 0 0 0 0 0 0 0 0 127 0" result="hardAlpha"/>
<feOffset/>
<feGaussianBlur stdDeviation="25"/>
<feComposite in2="hardAlpha" operator="out"/>
<feColorMatrix type="matrix" values="0 0 0 0 0.917647 0 0 0 0 0.572549 0 0 0 0 0.176471 0 0 0 1 0"/>
<feBlend mode="normal" in2="BackgroundImageFix" result="effect1_dropShadow_49_107"/>
<feBlend mode="normal" in="SourceGraphic" in2="effect1_dropShadow_49_107" result="shape"/>
</filter>
<linearGradient id="paint0_linear_49_107" x1="696.161" y1="194" x2="403.265" y2="875.832" gradientUnits="userSpaceOnUse">
<stop stop-color="#F8C33A"/>
<stop offset="1" stop-color="#D9581D"/>
</linearGradient>
</defs>
</svg>
